<svg width="39" height="38" viewBox="0 0 39 38" fill="none" xmlns="http://www.w3.org/2000/svg">
<path d="M19.959 0C9.48239 0 0.958984 8.52279 0.958984 19C0.958984 22.6862 2.01598 26.24 4.02236 29.3263L1.06165 36.2348C0.857552 36.7098 0.963932 37.2628 1.33008 37.6289C1.57253 37.8714 1.89661 38 2.22565 38C2.39388 38 2.56396 37.9666 2.72477 37.8973L9.6333 34.936C12.7189 36.9436 16.2728 38 19.959 38C30.4362 38 38.959 29.4772 38.959 19C38.959 8.52279 30.4362 0 19.959 0ZM29.7113 25.8009C29.7113 25.8009 28.1317 27.8271 26.99 28.3008C24.088 29.502 19.9911 28.3008 15.324 23.635C10.6581 18.9678 9.45641 14.871 10.6581 11.969C11.1319 10.826 13.1581 9.24766 13.1581 9.24766C13.7073 8.81966 14.5608 8.87285 15.0531 9.36517L17.3452 11.6573C17.8376 12.1496 17.8376 12.9561 17.3452 13.4484L15.9066 14.8858C15.9066 14.8858 15.324 16.6349 18.8234 20.1355C22.3229 23.635 24.0732 23.0523 24.0732 23.0523L25.5105 21.6137C26.0029 21.1214 26.8094 21.1214 27.3017 21.6137L29.5938 23.9059C30.0861 24.3982 30.1393 25.2505 29.7113 25.8009Z" fill="#424436"/>
</svg>
